<?xml version="1.0" standalone="no"?>
<!DOCTYPE svg PUBLIC "-//W3C//DTD SVG 20010904//EN"
 "http://www.w3.org/TR/2001/REC-SVG-20010904/DTD/svg10.dtd">
<svg version="1.0" xmlns="http://www.w3.org/2000/svg"
 width="1024.000000pt" height="1024.000000pt" viewBox="0 0 1024.000000 1024.000000"
 preserveAspectRatio="xMidYMid meet">
<metadata>
Created by potrace 1.15, written by Peter Selinger 2001-2017
</metadata>
<g transform="translate(0.000000,1024.000000) scale(0.100000,-0.100000)"
fill="#cc4a38" stroke="none">
<path d="M4939 9074 c-399 -72 -708 -324 -858 -700 -62 -154 -72 -218 -78
-484 -4 -209 -3 -246 15 -330 50 -243 170 -430 371 -581 66 -49 191 -123 197
-116 3 2 -17 20 -44 40 -172 123 -320 315 -392 510 -114 306 -62 672 139 977
92 140 280 300 436 371 192 87 443 107 652 53 292 -76 555 -293 688 -569 179
-368 139 -779 -106 -1105 -68 -89 -126 -146 -238 -229 -46 -33 -79 -61 -74
-61 16 0 190 107 250 153 287 221 403 569 352 1057 -43 428 -372 837 -782 975
-156 52 -369 68 -528 39z m256 -148 c38 -17 27 -22 -95 -36 -393 -47 -739
-271 -909 -591 -24 -45 -57 -121 -73 -168 -26 -78 -28 -81 -22 -36 15 128 74
287 151 402 58 89 188 219 280 280 93 62 241 125 341 147 87 19 287 20 327 2z"/>
<path d="M3330 8454 c-607 -81 -1188 -438 -1561 -958 -374 -521 -542 -1161
-489 -1857 54 -701 285 -1369 685 -1979 74 -112 291 -410 300 -410 2 0 17 24
33 54 36 63 96 117 172 154 l55 27 -37 36 c-29 27 -38 44 -38 69 0 18 38 204
84 414 47 209 108 494 137 632 l52 250 -32 65 c-132 269 -33 604 244 824 153
122 310 179 488 178 59 -1 107 3 107 8 0 5 18 9 40 9 39 0 40 -1 40 -35 0 -32
-2 -35 -23 -29 -24 5 -24 5 -30 -108 -15 -257 -20 -844 -8 -983 40 -474 168
-891 399 -1297 l67 -118 57 0 c32 0 58 2 58 5 0 2 -36 75 -79 162 -223 444
-352 904 -401 1423 -9 99 -50 788 -50 843 0 18 6 19 83 12 219 -17 391 -51
588 -116 402 -132 648 -293 793 -517 25 -39 46 -75 46 -81 0 -31 22 -13 56 46
79 136 252 290 444 395 153 84 408 177 610 222 129 28 325 56 401 56 l50 0 -6
-82 c-3 -46 -10 -168 -16 -273 -23 -427 -50 -704 -90 -905 -71 -363 -173 -659
-345 -1003 l-94 -187 60 0 59 0 49 83 c107 177 222 427 285 622 94 287 137
538 152 895 6 133 -6 598 -21 817 -6 86 -8 91 -30 96 -13 2 -24 0 -24 -4 0 -5
-24 -9 -52 -9 -149 0 -472 -48 -679 -100 -284 -72 -573 -206 -746 -346 l-42
-35 -88 66 c-95 70 -267 163 -404 218 -244 98 -587 170 -921 192 l-98 7 0 39
0 39 538 0 539 0 12 273 c7 149 15 288 18 308 5 35 4 36 -53 64 -106 52 -238
149 -334 245 -189 188 -314 425 -371 703 -17 83 -21 136 -20 280 1 211 18 336
64 480 l34 105 -31 6 c-158 29 -508 34 -686 10z"/>
<path d="M6385 8464 c-16 -2 -67 -9 -112 -15 -46 -6 -83 -13 -83 -15 0 -2 10
-27 21 -56 70 -174 93 -332 86 -585 -4 -160 -9 -202 -31 -285 -107 -400 -356
-718 -695 -888 l-63 -31 6 -82 c3 -45 8 -140 11 -212 3 -71 8 -172 11 -222 l6
-93 527 0 c566 0 656 -4 647 -27 -5 -12 1 -13 27 -7 50 11 179 8 238 -6 274
-66 509 -285 595 -555 47 -148 40 -313 -18 -429 l-23 -47 -124 -5 -125 -4 31
32 c49 52 92 127 115 202 17 55 20 85 16 160 -6 101 -26 163 -86 261 -36 60
-161 195 -180 195 -5 0 -19 -8 -31 -17 -18 -15 -22 -35 -31 -138 -23 -263
-103 -422 -277 -542 -55 -38 -58 -42 -56 -79 1 -21 13 -70 25 -109 l23 -70
120 3 c113 4 251 25 470 72 49 10 91 17 94 15 7 -8 251 -1248 251 -1280 0 -40
-32 -90 -71 -110 l-32 -17 49 -28 c84 -48 167 -154 188 -243 6 -27 7 -27 68
44 101 117 277 358 373 511 109 174 273 496 344 675 150 382 235 729 281 1151
13 121 13 503 0 623 -71 637 -329 1184 -761 1610 -335 332 -728 535 -1205 624
-64 13 -158 18 -339 20 -137 2 -263 1 -280 -1z"/>
<path d="M4535 7931 c-72 -18 -142 -77 -169 -143 -22 -51 -20 -153 3 -203 23
-52 74 -103 126 -126 50 -23 142 -25 193 -4 56 24 119 91 138 148 20 59 15
147 -10 196 -53 102 -173 158 -281 132z m93 -203 c7 -7 12 -24 12 -38 0 -32
-17 -50 -46 -50 -35 0 -57 40 -43 78 9 25 56 31 77 10z"/>
<path d="M5590 7931 c-103 -33 -166 -110 -177 -215 -10 -100 37 -191 124 -243
41 -24 59 -28 118 -28 82 1 134 23 185 81 45 52 60 93 60 164 0 100 -46 177
-134 222 -43 22 -136 32 -176 19z m112 -216 c17 -38 -3 -75 -41 -75 -45 0 -69
43 -45 79 22 31 71 28 86 -4z"/>
<path d="M4786 6438 c-3 -73 -9 -208 -12 -300 l-6 -166 285 -2 285 -1 6 178
c3 98 9 229 12 292 5 99 4 113 -9 108 -8 -3 -52 -11 -98 -18 -105 -15 -259 -6
-363 21 -44 11 -83 20 -87 20 -4 0 -10 -60 -13 -132z m154 -87 l35 -29 -1 -89
c-1 -103 -25 -195 -59 -229 -30 -30 -41 -30 -61 1 -32 49 -28 235 7 369 10 35
12 37 27 22 9 -8 33 -29 52 -45z"/>
<path d="M3026 5719 c-20 -17 -56 -58 -82 -92 -47 -62 -109 -175 -101 -183 2
-3 10 9 17 26 7 16 16 30 21 30 4 0 26 18 48 40 40 41 82 52 98 28 7 -12 22
-274 26 -473 2 -99 -5 -185 -15 -185 -5 0 -23 7 -41 16 l-32 17 19 -22 19 -21
-96 0 c-54 0 -97 -4 -97 -9 0 -23 352 -88 499 -93 l114 -3 28 95 c16 52 26
103 23 112 -3 10 -30 34 -59 54 -64 42 -151 133 -188 196 -53 91 -85 215 -102
401 -10 101 -38 120 -99 66z"/>
<path d="M4578 4906 c-207 -73 -322 -270 -290 -497 28 -195 141 -357 452 -653
119 -112 367 -316 385 -316 18 0 237 178 355 288 332 309 452 481 481 687 30
216 -101 434 -299 495 -180 56 -375 0 -491 -140 l-47 -57 -59 65 c-32 35 -75
74 -96 87 -107 68 -267 85 -391 41z"/>
<path d="M3479 4825 l-15 -70 -70 2 -69 3 50 -19 c28 -10 62 -24 77 -29 l27
-11 -23 -83 c-13 -46 -54 -182 -90 -303 -37 -121 -112 -368 -167 -550 -56
-181 -104 -341 -108 -355 -7 -22 -13 -25 -59 -25 l-50 1 19 -27 c19 -27 19
-27 52 -10 29 15 92 19 408 30 206 8 400 16 432 20 l57 6 -66 120 c-217 393
-354 851 -383 1275 l-6 95 -16 -70z"/>
<path d="M6761 4864 c0 -11 3 -14 6 -6 3 7 2 16 -1 19 -3 4 -6 -2 -5 -13z"/>
<path d="M6768 4830 c-3 -8 -11 -70 -17 -138 -35 -388 -188 -847 -404 -1212
l-45 -75 42 -6 c22 -4 183 -12 356 -19 283 -10 408 -19 449 -31 8 -2 14 5 16
19 1 13 -4 22 -12 22 -7 0 -13 2 -13 4 0 2 -83 295 -185 650 -102 356 -185
651 -185 656 0 5 12 12 28 16 15 3 51 13 80 23 l54 17 -68 2 c-37 1 -69 4 -72
7 -3 2 -8 22 -12 42 -4 22 -9 32 -12 23z"/>
<path d="M7210 4643 c-118 -25 -216 -47 -218 -48 -3 -3 29 -177 33 -183 4 -5
439 80 447 87 11 9 -24 191 -36 190 -6 0 -108 -21 -226 -46z"/>
<path d="M2947 4611 c-10 -29 -32 -62 -53 -81 -20 -17 -35 -33 -33 -34 6 -6
346 -86 362 -86 9 0 20 14 25 33 18 56 34 138 30 143 -3 2 -67 18 -144 34 -76
17 -146 33 -154 35 -11 4 -20 -9 -33 -44z"/>
<path d="M2765 4338 c-9 -27 -54 -279 -74 -415 -17 -114 -19 -152 -11 -190 43
-188 224 -203 342 -28 60 89 209 501 195 538 -3 8 -83 30 -193 54 -266 59
-253 57 -259 41z m136 -50 c19 -36 -26 -196 -103 -358 -26 -55 -31 -62 -40
-45 -7 11 -9 56 -5 114 11 201 101 376 148 289z"/>
<path d="M7280 4299 c-102 -22 -195 -41 -207 -44 l-22 -5 25 -93 c58 -217 120
-388 165 -458 51 -80 135 -125 204 -109 76 17 125 99 125 209 0 62 -21 257
-47 429 -15 102 -18 112 -37 111 -12 -1 -104 -19 -206 -40z"/>
<path d="M2482 3399 c-75 -37 -134 -102 -163 -178 -55 -146 10 -344 141 -426
171 -108 385 -43 479 147 38 75 46 130 32 214 -20 113 -57 166 -142 203 -45
20 -239 71 -270 71 -9 0 -43 -14 -77 -31z m213 -40 c4 -5 -16 -34 -44 -63 -56
-61 -64 -82 -59 -160 1 -30 0 -52 -4 -49 -5 2 -8 -4 -8 -13 0 -26 -77 -152
-100 -164 -17 -9 -23 -6 -40 22 -95 154 -48 341 105 417 43 22 139 28 150 10z"/>
<path d="M7444 3410 c-157 -35 -210 -84 -240 -217 -32 -143 1 -259 101 -359
132 -132 335 -122 467 24 129 143 127 349 -5 485 -86 87 -162 103 -323 67z"/>
<path d="M6330 3006 l0 -246 63 6 c34 3 77 7 95 10 l32 5 0 148 c0 81 -3 182
-6 224 l-7 75 -56 7 c-31 3 -71 9 -88 12 l-33 5 0 -246z"/>
<path d="M3702 3225 c-39 -6 -74 -14 -77 -17 -3 -2 -8 -99 -12 -215 l-6 -211
39 -5 c21 -3 65 -9 97 -12 l57 -6 1 213 c0 117 3 225 5 241 5 31 7 31 -104 12z"/>
<path d="M6805 3231 l-90 -6 3 -135 c1 -74 5 -165 8 -202 6 -63 8 -68 28 -63
11 2 83 7 159 11 l137 6 0 162 c0 88 -3 178 -6 199 l-7 37 -71 -2 c-39 -1
-111 -4 -161 -7z"/>
<path d="M3100 3038 l0 -195 156 -8 c85 -4 158 -4 161 -1 3 3 8 91 11 196 l5
190 -45 0 c-25 0 -100 3 -166 7 l-122 6 0 -195z"/>
<path d="M2956 2796 c-4 -15 -28 -48 -54 -73 -45 -44 -46 -46 -26 -62 11 -9
67 -55 124 -102 217 -178 540 -402 825 -571 222 -132 344 -197 613 -332 l234
-117 -8 33 c-4 18 -8 70 -8 116 l-1 83 -61 77 c-33 42 -125 167 -204 277 -248
346 -352 485 -359 481 -4 -3 -61 4 -127 15 -65 10 -288 46 -494 79 -206 33
-385 62 -397 65 -12 3 -29 17 -36 32 l-14 26 -7 -27z"/>
<path d="M7206 2792 c-4 -12 -17 -24 -29 -26 -79 -16 -956 -156 -973 -156 -22
0 -137 -152 -453 -600 -61 -85 -127 -175 -147 -198 -36 -42 -37 -46 -35 -115
1 -43 -4 -89 -13 -113 l-14 -42 86 40 c94 44 307 153 497 256 399 216 786 470
1112 733 90 73 135 102 161 107 l37 5 -40 18 c-22 10 -55 19 -73 19 -34 0 -72
30 -98 75 -11 19 -11 19 -18 -3z"/>
<path d="M4457 2542 c-97 -70 -177 -130 -177 -135 0 -10 120 -163 127 -160 7
2 318 229 342 249 4 4 -98 162 -108 169 -4 2 -86 -54 -184 -123z"/>
<path d="M5523 2576 l-51 -84 131 -93 c73 -51 153 -108 179 -126 l46 -34 61
86 c34 47 61 87 61 90 0 5 -346 234 -364 241 -6 2 -35 -33 -63 -80z"/>
<path d="M5249 2258 c-80 -90 -139 -163 -139 -172 0 -3 16 -6 35 -6 29 0 38 6
59 38 34 54 119 212 114 212 -3 0 -34 -33 -69 -72z"/>
<path d="M4720 2288 c-123 -85 -210 -153 -210 -164 0 -7 30 -44 68 -82 77 -79
131 -101 201 -82 63 17 107 79 96 137 -6 36 -95 223 -105 223 -3 -1 -25 -15
-50 -32z"/>
<path d="M4964 2215 c67 -128 80 -145 107 -138 34 9 33 26 -2 56 -19 16 -27
26 -19 21 12 -6 -87 113 -133 161 -6 6 16 -39 47 -100z"/>
<path d="M5397 2211 c-52 -109 -57 -149 -27 -198 54 -90 180 -83 271 14 45 48
79 93 79 105 0 9 -254 178 -268 178 -5 0 -30 -44 -55 -99z"/>
<path d="M5059 1957 c-96 -58 -255 -175 -286 -210 -83 -95 -62 -221 54 -327
166 -152 407 -152 568 1 71 67 105 135 105 208 0 92 -26 121 -235 263 -157
107 -143 103 -206 65z"/>
</g>
</svg>
